<!DOCTYPE svg PUBLIC "-//W3C//DTD SVG 1.1//EN" "http://www.w3.org/Graphics/SVG/1.1/DTD/svg11.dtd">

<!-- Uploaded to: SVG Repo, www.svgrepo.com, Transformed by: SVG Repo Mixer Tools -->
<svg fill="#F3BA2F" width="800px" height="800px" viewBox="0 0 32 32" xmlns="http://www.w3.org/2000/svg">

<g id="SVGRepo_bgCarrier" stroke-width="0"/>

<g id="SVGRepo_tracerCarrier" stroke-linecap="round" stroke-linejoin="round"/>

<g id="SVGRepo_iconCarrier">

<path d="M16 32C7.163 32 0 24.837 0 16S7.163 0 16 0s16 7.163 16 16-7.163 16-16 16zM9.51 11.744l6.376-3.668 6.36 3.676-6.36 3.677-6.375-3.685zm12.976-.13l3.257-1.9L15.886 4 6 9.714v11.429l9.886 5.714 9.857-5.714-3.495-2.038-6.362 3.676-6.39-3.676v-3.296l6.4 3.696 6.418-3.715v3.315l3.457 2.038V9.714l-3.285 1.9z"/>

</g>

</svg>